# File created by Blade
# Date/Time:  Tue Apr 07 21:36:51 2015
#---------------------------------------------------------
:version 1.10
:name HOM
:units
  mass 1.0
  length 1.000000
  angle deg
:documentation
     Acclaim Skeleton File
:root
   axis xyz
   order TX TY TZ RX RY RZ
   position 0.000000 0.000000 0.000000
   orientation 0 0 0
:bonedata
   begin
      id 1
      name Spine_dum
      direction 0.000000 1.000000 0.000000
      length 4.885285
      axis 0.0 0.0 0.0 xyz
   end
   begin
      id 2
      name LeftUpLeg_dum
      direction 1.000000 0.000000 0.000000
      length 2.672193
      axis 0.0 0.0 0.0 xyz
   end
   begin
      id 3
      name RightUpLeg_dum
      direction -1.000000 0.000000 0.000000
      length 2.672193
      axis 0.0 0.0 0.0 xyz
   end
   begin
      id 4
      name Spine
      direction 0.000000 1.000000 0.000000
      length 0.000000
      axis 0.0 0.0 0.0 xyz
      dof rx ry rz
   end
   begin
      id 5
      name Spine_dum1
      direction 0.000000 1.000000 0.000000
      length 16.494159
      axis 0.0 0.0 0.0 xyz
   end
   begin
      id 6
      name Spine_dum2
      direction 0.000000 1.000000 0.000000
      length 10.663448
      axis 0.0 0.0 0.0 xyz
   end
   begin
      id 7
      name Spine_dum3
      direction 0.000000 1.000000 0.000000
      length 10.663448
      axis 0.0 0.0 0.0 xyz
   end
   begin
      id 8
      name Head
      direction 0.000000 1.000000 0.000000
      length 4.527550
      axis 0.0 0.0 0.0 xyz
      dof rx ry rz
   end
   begin
      id 9
      name LeftShoulder
      direction 1.000000 0.000000 0.000000
      length 7.531907
      axis 0.0 0.0 -90.0 xyz
      dof rx ry rz
   end
   begin
      id 10
      name LeftArm
      direction 1.000000 0.000000 0.000000
      length 10.229199
      axis 0.0 0.0 -90.0 xyz
      dof rx ry rz
   end
   begin
      id 11
      name LeftForeArm
      direction 1.000000 0.000000 0.000000
      length 8.673495
      axis 0.0 0.0 -90.0 xyz
      dof ry rz rx
   end
   begin
      id 12
      name LeftHand
      direction 0.000000 0.000000 0.000000
      length 0.000000
      axis 0.0 0.0 -90.0 xyz
      dof rx ry rz
   end
   begin
      id 13
      name LeftHand_dum1
      direction 0.000000 0.000000 0.000000
      length 0.000000
      axis 0.0 0.0 -90.0 xyz
   end
   begin
      id 14
      name LeftHand_dum2
      direction 1.000000 0.000000 0.000000
      length 3.937000
      axis 0.0 0.0 -90.0 xyz
   end
   begin
      id 15
      name LeftHandThumb1
      direction 0.000000 0.000000 1.000000
      length 3.937000
      axis 0.0 0.0 -90.0 xyz
      dof rx rz ry
   end
   begin
      id 16
      name RightShoulder
      direction -1.000000 0.000000 0.000000
      length 7.531907
      axis 0.0 0.0 90.0 xyz
      dof rx ry rz
   end
   begin
      id 17
      name RightArm
      direction -1.000000 0.000000 0.000000
      length 10.229199
      axis 0.0 0.0 90.0 xyz
      dof rx ry rz
   end
   begin
      id 18
      name RightForeArm
      direction -1.000000 0.000000 0.000000
      length 8.673495
      axis 0.0 0.0 90.0 xyz
      dof ry rz rx
   end
   begin
      id 19
      name RightHand
      direction 0.000000 0.000000 0.000000
      length 0.000000
      axis 0.0 0.0 90.0 xyz
      dof rx ry rz
   end
   begin
      id 20
      name RightHand_dum1
      direction 0.000000 0.000000 0.000000
      length 0.000000
      axis 0.0 0.0 90.0 xyz
   end
   begin
      id 21
      name RightHand_dum2
      direction -1.000000 0.000000 0.000000
      length 3.937000
      axis 0.0 0.0 90.0 xyz
   end
   begin
      id 22
      name RightHandThumb1
      direction 0.000000 0.000000 1.000000
      length 3.937000
      axis 0.0 0.0 90.0 xyz
      dof rx rz ry
   end
   begin
      id 23
      name LeftUpLeg
      direction 0.000000 -1.000000 0.000000
      length 16.263388
      axis 0.0 0.0 0.0 xyz
      dof rx ry rz
   end
   begin
      id 24
      name LeftLeg
      direction 0.000000 -1.000000 0.000000
      length 14.328163
      axis 0.0 0.0 0.0 xyz
      dof rx ry rz
   end
   begin
      id 25
      name LeftFoot
      direction 0.000000 -0.258819 0.965926
      length 5.031290
      axis 15.0 0.0 0.0 xyz
      dof rx ry rz
   end
   begin
      id 26
      name LeftToeBase
      direction 0.000000 0.000000 1.000000
      length 2.952750
      axis 0.0 0.0 0.0 xyz
      dof rx ry rz
   end
   begin
      id 27
      name RightUpLeg
      direction 0.000000 -1.000000 0.000000
      length 16.263388
      axis 0.0 0.0 0.0 xyz
      dof rx ry rz
   end
   begin
      id 28
      name RightLeg
      direction 0.000000 -1.000000 0.000000
      length 14.328163
      axis 0.0 0.0 0.0 xyz
      dof rx ry rz
   end
   begin
      id 29
      name RightFoot
      direction 0.000000 -0.258819 0.965926
      length 5.031290
      axis 15.0 0.0 0.0 xyz
      dof rx ry rz
   end
   begin
      id 30
      name RightToeBase
      direction 0.000000 0.000000 1.000000
      length 2.952750
      axis 0.0 0.0 0.0 xyz
      dof rx ry rz
   end
:hierarchy
   begin
      root Spine_dum LeftUpLeg_dum RightUpLeg_dum
      Spine_dum Spine
      LeftUpLeg_dum LeftUpLeg
      RightUpLeg_dum RightUpLeg
      Spine Spine_dum1 Spine_dum2 Spine_dum3
      Spine_dum1 Head
      Spine_dum2 LeftShoulder
      Spine_dum3 RightShoulder
      LeftShoulder LeftArm
      LeftArm LeftForeArm
      LeftForeArm LeftHand
      LeftHand LeftHand_dum1 LeftHand_dum2
      LeftHand_dum1 LeftHandThumb1
      RightShoulder RightArm
      RightArm RightForeArm
      RightForeArm RightHand
      RightHand RightHand_dum1 RightHand_dum2
      RightHand_dum1 RightHandThumb1
      LeftUpLeg LeftLeg
      LeftLeg LeftFoot
      LeftFoot LeftToeBase
      RightUpLeg RightLeg
      RightLeg RightFoot
      RightFoot RightToeBase
   end

# File created by Blade
# Date/Time:  Tue Apr 07 21:36:59 2015
# Frame Rate: 120.000 fps
#------------------------------------------------------
:FULLY-SPECIFIED
:DEGREES
1
root -1.827100 32.961850 6.888032 5.255096 2.544827 -1.678450
Spine -7.338583 -6.509213 1.143913
Head 15.160781 -5.139309 -1.292341
LeftShoulder -19.343535 40.015326 21.489200
LeftArm 59.892751 -56.808417 -59.892751
LeftForeArm 4.302425 -0.000000 -4.560242
LeftHand 6.137403 -0.000000 3.392669
LeftHandThumb1 -26.253704 0.000000 33.147579
RightShoulder -7.097500 5.680582 -31.984385
RightArm 16.650094 14.697717 42.348461
RightForeArm -12.386182 -0.000000 0.880491
RightHand 4.810385 0.000000 1.357359
RightHandThumb1 -24.326973 -0.000000 -32.862282
LeftUpLeg 2.080183 -2.132451 2.148347
LeftLeg -5.735603 -0.000000 0.000000
LeftFoot -4.865737 8.767049 -19.037549
LeftToeBase -4.914528 -0.000000 0.000000
RightUpLeg 1.838371 1.518759 1.759519
RightLeg -6.418983 -0.000000 0.000000
RightFoot -5.047156 -13.073302 9.038041
RightToeBase -0.363188 -0.000000 0.000000
2
root -1.826861 32.962263 6.890804 5.279077 2.493869 -1.699640
Spine -7.316910 -6.527020 1.153192
Head 15.067192 -5.178432 -1.292921
LeftShoulder -19.385087 39.937387 21.472264
LeftArm 59.728273 -57.049460 -59.764992
LeftForeArm 4.451832 -0.000000 -4.552372
LeftHand 6.083403 -0.000000 3.448984
LeftHandThumb1 -26.253704 0.000000 33.147579
RightShoulder -7.120126 5.711353 -32.035936
RightArm 16.677503 14.618711 42.341772
RightForeArm -12.485570 -0.000000 0.904369
RightHand 4.812457 0.000000 1.260446
RightHandThumb1 -24.326973 -0.000000 -32.862282
LeftUpLeg 2.070358 -2.043430 2.168106
LeftLeg -5.749920 -0.000000 0.000000
LeftFoot -4.845712 8.735811 -19.083772
LeftToeBase -4.908124 -0.000000 0.000000
RightUpLeg 1.788532 1.572132 1.779710
RightLeg -6.366093 -0.000000 0.000000
RightFoot -5.103086 -13.100938 9.055995
RightToeBase -0.347663 -0.000000 0.000000
3
root -1.825258 32.962698 6.892327 5.313932 2.424236 -1.706775
Spine -7.298311 -6.489691 1.145090
Head 14.958164 -5.248934 -1.294670
LeftShoulder -19.470816 39.932595 21.430151
LeftArm 59.683753 -57.238597 -59.696413
LeftForeArm 4.500752 -0.000000 -4.510763
LeftHand 6.035966 -0.000000 3.671587
LeftHandThumb1 -26.253704 0.000000 33.147579
RightShoulder -7.183602 5.704764 -32.076157
RightArm 16.726651 14.494054 42.297554
RightForeArm -12.562793 0.000000 0.925392
RightHand 4.829139 -0.000000 1.214298
RightHandThumb1 -24.326973 -0.000000 -32.862282
LeftUpLeg 2.050062 -1.940498 2.168877
LeftLeg -5.762352 -0.000000 0.000000
LeftFoot -4.810401 8.716327 -19.091028
LeftToeBase -4.918658 -0.000000 0.000000
RightUpLeg 1.730665 1.642614 1.780275
RightLeg -6.320942 -0.000000 0.000000
RightFoot -5.158413 -13.120025 9.082600
RightToeBase -0.279415 -0.000000 0.000000
4
root -1.826612 32.963251 6.894544 5.350342 2.356152 -1.735880
Spine -7.283648 -6.470522 1.154140
Head 14.853379 -5.312481 -1.278171
LeftShoulder -19.584673 39.973018 21.374563
LeftArm 59.746360 -57.535409 -59.782882
LeftForeArm 4.654705 0.000000 -4.428804
LeftHand 6.046075 -0.000000 3.586952
LeftHandThumb1 -26.253704 0.000000 33.147579
RightShoulder -7.231779 5.741986 -32.125031
RightArm 16.743703 14.345011 42.264751
RightForeArm -12.623267 -0.000000 0.977770
RightHand 4.752065 -0.000000 1.092461
RightHandThumb1 -24.326973 -0.000000 -32.862282
LeftUpLeg 2.024938 -1.813761 2.194789
LeftLeg -5.771853 -0.000000 0.000000
LeftFoot -4.811101 8.676619 -19.135159
LeftToeBase -4.858807 -0.000000 0.000000
RightUpLeg 1.656215 1.687486 1.804750
RightLeg -6.243993 -0.000000 0.000000
RightFoot -5.230662 -13.095420 9.120730
RightToeBase -0.227484 -0.000000 0.000000
5
root -1.827322 32.964321 6.896167 5.386776 2.276395 -1.761273
Spine -7.273220 -6.486269 1.168456
Head 14.770124 -5.340313 -1.283722
LeftShoulder -19.689139 39.973053 21.328346
LeftArm 59.578604 -57.796920 -59.653688
LeftForeArm 4.757396 0.000000 -4.347094
LeftHand 5.913342 -0.000000 3.570936
LeftHandThumb1 -26.253704 0.000000 33.147579
RightShoulder -7.209849 5.780666 -32.152725
RightArm 16.739834 14.243681 42.203036
RightForeArm -12.772752 0.000000 1.044298
RightHand 4.847614 -0.000000 1.028159
RightHandThumb1 -24.326973 -0.000000 -32.862282
LeftUpLeg 2.003160 -1.705644 2.217133
LeftLeg -5.782132 -0.000000 0.000000
LeftFoot -4.791774 8.664293 -19.154468
LeftToeBase -4.835142 -0.000000 0.000000
RightUpLeg 1.589219 1.743434 1.824769
RightLeg -6.183212 -0.000000 0.000000
RightFoot -5.308667 -13.087480 9.215597
RightToeBase -0.159557 -0.000000 0.000000
6
root -1.827217 32.965344 6.897942 5.426075 2.176744 -1.782110
Spine -7.257488 -6.457181 1.168905
Head 14.672083 -5.408444 -1.286215
LeftShoulder -19.785252 39.945637 21.305423
LeftArm 59.492090 -58.093890 -59.611772
LeftForeArm 4.995789 -0.000000 -4.313415
LeftHand 5.980001 -0.000000 3.524779
LeftHandThumb1 -26.253704 0.000000 33.147579
RightShoulder -7.221181 5.827263 -32.188446
RightArm 16.719191 14.125184 42.136655
RightForeArm -12.831021 -0.000000 1.132527
RightHand 4.788850 -0.000000 0.975620
RightHandThumb1 -24.326973 -0.000000 -32.862282
LeftUpLeg 1.987043 -1.578702 2.231382
LeftLeg -5.807949 -0.000000 0.000000
LeftFoot -4.763341 8.643934 -19.205147
LeftToeBase -4.851587 -0.000000 0.000000
RightUpLeg 1.515765 1.796066 1.837591
RightLeg -6.119617 -0.000000 0.000000
RightFoot -5.371914 -13.059652 9.268843
RightToeBase -0.140819 -0.000000 0.000000
7
root -1.828078 32.966743 6.899765 5.468566 2.070227 -1.803338
Spine -7.247166 -6.415275 1.166781
Head 14.590316 -5.504241 -1.305923
LeftShoulder -19.870324 39.898131 21.281806
LeftArm 59.271061 -58.312299 -59.375862
LeftForeArm 5.001612 0.000000 -4.298481
LeftHand 5.851591 -0.000000 3.833644
LeftHandThumb1 -26.253704 0.000000 33.147579
RightShoulder -7.234209 5.788150 -32.208435
RightArm 16.745568 14.089872 42.094666
RightForeArm -12.970747 -0.000000 1.233357
RightHand 4.842329 -0.000000 0.891179
RightHandThumb1 -24.326973 -0.000000 -32.862282
LeftUpLeg 1.965124 -1.440977 2.248681
LeftLeg -5.819988 -0.000000 0.000000
LeftFoot -4.739193 8.617606 -19.221739
LeftToeBase -4.817685 -0.000000 0.000000
RightUpLeg 1.445054 1.867527 1.850691
RightLeg -6.066156 -0.000000 0.000000
RightFoot -5.439284 -13.037905 9.325604
RightToeBase -0.039674 -0.000000 0.000000
8
root -1.829331 32.968633 6.900498 5.523355 1.959939 -1.819092
Spine -7.249529 -6.402456 1.156479
Head 14.499257 -5.546433 -1.289944
LeftShoulder -19.963861 39.867492 21.248787
LeftArm 58.987286 -58.612867 -59.132346
LeftForeArm 5.113622 -0.000000 -4.239511
LeftHand 5.855325 -0.000000 3.846459
LeftHandThumb1 -26.253704 0.000000 33.147579
RightShoulder -7.208124 5.785692 -32.206937
RightArm 16.751904 13.999143 42.010852
RightForeArm -13.092460 -0.000000 1.317729
RightHand 4.879552 -0.000000 0.777956
RightHandThumb1 -24.326973 -0.000000 -32.862282
LeftUpLeg 1.930297 -1.305802 2.259680
LeftLeg -5.832141 -0.000000 0.000000
LeftFoot -4.696782 8.597077 -19.278032
LeftToeBase -4.895101 -0.000000 0.000000
RightUpLeg 1.357774 1.927057 1.857775
RightLeg -6.008787 -0.000000 0.000000
RightFoot -5.504569 -13.008678 9.393772
RightToeBase 0.027452 -0.000000 -0.000000
9
root -1.830425 32.970001 6.902153 5.566033 1.839642 -1.840377
Spine -7.235828 -6.363914 1.154855
Head 14.408615 -5.612893 -1.292687
LeftShoulder -20.076603 39.854287 21.211414
LeftArm 58.755889 -58.879328 -58.909342
LeftForeArm 5.154802 -0.000000 -4.229854
LeftHand 5.898936 -0.000000 3.976818
LeftHandThumb1 -26.253704 0.000000 33.147579
RightShoulder -7.194787 5.777349 -32.205985
RightArm 16.760029 13.956050 41.929723
RightForeArm -13.263838 -0.000000 1.408381
RightHand 4.844490 -0.000000 0.757529
RightHandThumb1 -24.326973 -0.000000 -32.862282
LeftUpLeg 1.914730 -1.173440 2.272549
LeftLeg -5.856621 -0.000000 0.000000
LeftFoot -4.677716 8.610738 -19.313427
LeftToeBase -4.892013 -0.000000 0.000000
RightUpLeg 1.288321 2.005378 1.870312
RightLeg -5.956066 -0.000000 0.000000
RightFoot -5.601546 -12.990342 9.504206
RightToeBase 0.118703 -0.000000 -0.000000
